<svg height="512pt" viewBox="0 0 512 512" width="512pt" xmlns="http://www.w3.org/2000/svg"><path d="m271 0h-15l-10.667969 32 10.667969 32h15zm0 0" fill="#292929"/><path d="m241 0h15v64h-15zm0 0" fill="#4f4f4f"/><path d="m256 49-10.667969 25.664062 10.667969 44.066407 68.332031-21.335938v-48.394531zm0 0" fill="#8d9ca8"/><path d="m187.667969 49v48.394531l68.332031 21.335938v-69.730469zm0 0" fill="#aab8c7"/><path d="m352 119.667969h79v164.332031h-79zm0 0" fill="#ff6200"/><path d="m352 202.332031h132.332031v288.332031h-132.332031zm0 0" fill="#ff9d00"/><path d="m27.667969 166.332031h121.664062v324.332031h-121.664062zm0 0" fill="#fdcb02"/><path d="m367 118.730469-42.667969-21.335938h-68.332031l-10.667969 190.605469 10.667969 202.667969h111zm0 0" fill="#c5d3dd"/><path d="m187.667969 97.394531-42.667969 21.335938v371.9375h111v-393.273438zm0 0" fill="#d9e7ec"/><path d="m512 482h-256l-10.667969 15 10.667969 15h256zm0 0" fill="#8d9ca8"/><path d="m0 482h256v30h-256zm0 0" fill="#aab8c7"/><path d="m411 274.167969h30v42.667969h-30zm0 0" fill="#ffd27b"/><path d="m411 359.5h30v42.667969h-30zm0 0" fill="#ffd27b"/><g fill="#f3fffb"><path d="m209 188.832031h30v42.667969h-30zm0 0"/><path d="m209 274.167969h30v42.667969h-30zm0 0"/><path d="m209 359.5h30v42.667969h-30zm0 0"/></g><path d="m273 188.832031h30v42.667969h-30zm0 0" fill="#e8f0f3"/><path d="m273 274.167969h30v42.667969h-30zm0 0" fill="#e8f0f3"/><path d="m273 359.5h30v42.667969h-30zm0 0" fill="#e8f0f3"/><path d="m71.335938 241.472656h30v42.667969h-30zm0 0" fill="#f3fffb"/><path d="m71.335938 326.804688h30v42.667968h-30zm0 0" fill="#f3fffb"/></svg>